<svg version="1.1" id="Layer_1" xmlns="http://www.w3.org/2000/svg" xmlns:xlink="http://www.w3.org/1999/xlink" x="0px" y="0px"
	 width="100%" viewBox="0 0 460 460" enable-background="new 0 0 460 460" xml:space="preserve">
<path fill="#10B981" opacity="1.000000" stroke="none" 
	d="
M1.000004,433.000000 
	C1.000000,298.643341 1.000000,164.286682 1.349406,29.619152 
	C2.029656,28.736004 2.483033,28.201586 2.673274,27.585867 
	C6.567945,14.980637 14.807973,6.737369 27.378504,2.745717 
	C28.037348,2.536507 28.464815,1.598641 29.000000,1.000000 
	C163.356659,1.000000 297.713318,1.000000 432.413391,1.359724 
	C442.192627,4.580668 450.071716,9.665821 455.482635,18.061522 
	C457.530853,21.239571 459.172852,24.679462 461.000000,28.000000 
	C461.000000,163.356659 461.000000,298.713318 460.687073,434.287354 
	C460.076324,434.902466 459.649384,435.256927 459.499481,435.704224 
	C455.607635,447.317810 447.961426,455.209045 436.362732,459.271362 
	C435.778351,459.476013 435.448395,460.407135 435.000000,461.000000 
	C299.643341,461.000000 164.286682,461.000000 28.491381,460.643860 
	C27.624075,460.044006 27.220814,459.728027 26.763058,459.567017 
	C14.609476,455.293488 6.390918,447.223022 2.641990,434.759369 
	C2.434808,434.070587 1.562644,433.581848 1.000004,433.000000 
M300.873993,141.148788 
	C299.887146,131.243790 296.354919,122.276184 290.679169,113.382980 
	C284.789551,103.812126 276.421204,96.742134 266.760559,91.495346 
	C233.766556,73.575935 191.216110,88.566002 175.332733,123.042603 
	C173.504562,123.029396 171.676422,123.013733 169.848236,123.003403 
	C160.906128,122.952858 151.964020,122.903763 142.083786,122.768089 
	C134.705597,122.959106 127.327400,123.150124 119.132683,123.344124 
	C106.384758,124.465065 93.663422,125.786896 81.671371,130.686646 
	C75.586647,133.172760 69.398781,136.090103 68.085495,143.317017 
	C66.823547,150.261536 71.623657,154.886414 76.367172,158.820831 
	C86.939156,167.589569 98.961021,173.883652 112.453140,178.768936 
	C119.629562,181.460373 126.805977,184.151810 134.690002,187.042892 
	C136.764267,187.669998 138.838531,188.297104 140.840302,189.652176 
	C137.513290,198.763031 134.186279,207.873871 130.456421,217.546158 
	C128.282486,223.673355 126.108551,229.800552 123.455978,236.453568 
	C121.992531,240.632950 120.529083,244.812317 118.726585,249.640884 
	C116.803688,255.424500 114.880783,261.208099 112.506889,267.525330 
	C110.925217,271.995422 109.343552,276.465546 107.391502,281.521851 
	C104.921570,288.681641 102.451637,295.841431 99.522827,303.529694 
	C98.328972,307.010895 97.135117,310.492126 95.540833,314.559418 
	C94.024864,319.038513 92.508896,323.517578 90.601944,328.599426 
	C89.718788,332.063568 88.835640,335.527740 87.313377,339.275696 
	C85.696739,343.377289 83.922699,347.429596 82.609879,351.626251 
	C82.376022,352.373810 83.937775,354.514557 84.872421,354.653534 
	C89.123764,355.285797 93.447250,355.699249 97.744949,355.700684 
	C108.142807,355.704132 118.540398,355.347229 128.938797,355.303406 
	C136.381729,355.272034 143.826141,355.625000 151.269226,355.600830 
	C159.206406,355.575043 167.142441,355.200470 175.079651,355.171936 
	C185.478195,355.134521 195.877304,355.305176 206.276337,355.353668 
	C224.039108,355.436493 241.802017,355.486603 259.564789,355.565887 
	C265.999756,355.594574 272.435791,355.772736 278.869110,355.696991 
	C290.012726,355.565796 301.154572,355.284515 312.297363,355.077789 
	C315.575104,355.016998 318.875763,355.215240 322.124939,354.887878 
	C324.862488,354.612061 325.934601,352.932098 325.560608,349.942505 
	C325.066956,345.996918 325.151581,341.979004 324.820374,337.212616 
	C324.226654,334.140717 323.632935,331.068787 323.026520,327.083374 
	C322.678223,323.053589 322.329895,319.023834 321.986084,314.111023 
	C321.612976,310.393066 321.239868,306.675110 320.878693,302.101776 
	C320.167877,295.050812 319.457062,287.999878 318.682617,280.150787 
	C318.093964,276.093719 317.505341,272.036621 316.938049,267.108856 
	C316.244171,261.067474 315.550293,255.026077 314.906464,248.126129 
	C314.552460,244.416061 314.198456,240.706009 313.870911,236.146591 
	C312.759277,229.409592 311.647614,222.672592 310.791901,215.879944 
	C310.791901,215.879944 311.050323,215.922562 311.983246,215.960373 
	C325.323792,215.312714 338.664337,214.665054 352.840454,214.012512 
	C363.965759,212.230911 375.131348,210.743210 385.421936,205.577347 
	C395.710358,200.412598 397.823730,192.113373 390.170502,183.501083 
	C381.975830,174.279388 371.383728,168.447281 359.527222,163.488632 
	C345.352783,158.340897 331.178345,153.193161 316.330200,147.734848 
	C311.116150,145.806854 305.902100,143.878860 300.873993,141.148788 
z"/>
<path fill="#000503" opacity="1.000000" stroke="none" 
	d="
M28.531342,1.000000 
	C28.464815,1.598641 28.037348,2.536507 27.378504,2.745717 
	C14.807973,6.737369 6.567945,14.980637 2.673274,27.585867 
	C2.483033,28.201586 2.029656,28.736004 1.349406,29.154140 
	C1.000000,19.740208 1.000000,10.480416 1.000000,1.000000 
	C10.019698,1.000000 19.041191,1.000000 28.531342,1.000000 
z"/>
<path fill="#000503" opacity="1.000000" stroke="none" 
	d="
M1.000004,433.468658 
	C1.562644,433.581848 2.434808,434.070587 2.641990,434.759369 
	C6.390918,447.223022 14.609476,455.293488 26.763058,459.567017 
	C27.220814,459.728027 27.624075,460.044006 28.026367,460.643860 
	C19.072218,461.000000 10.144435,461.000000 1.000000,461.000000 
	C1.000000,451.980255 1.000000,442.958801 1.000004,433.468658 
z"/>
<path fill="#000503" opacity="1.000000" stroke="none" 
	d="
M461.000000,27.531338 
	C459.172852,24.679462 457.530853,21.239571 455.482635,18.061522 
	C450.071716,9.665821 442.192627,4.580668 432.878387,1.359724 
	C442.258453,1.000000 451.516876,1.000000 461.000000,1.000000 
	C461.000000,9.686271 461.000000,18.374474 461.000000,27.531338 
z"/>
<path fill="#000503" opacity="1.000000" stroke="none" 
	d="
M435.468658,461.000000 
	C435.448395,460.407135 435.778351,459.476013 436.362732,459.271362 
	C447.961426,455.209045 455.607635,447.317810 459.499481,435.704224 
	C459.649384,435.256927 460.076324,434.902466 460.687073,434.752380 
	C461.000000,443.593079 461.000000,452.186127 461.000000,461.000000 
	C452.647064,461.000000 444.292206,461.000000 435.468658,461.000000 
z"/>
<path fill="#3AC597" opacity="1.000000" stroke="none" 
	d="
M318.746216,280.948914 
	C319.457062,287.999878 320.167877,295.050812 320.418457,302.539459 
	C246.632736,302.985168 173.307220,302.993195 99.981705,303.001221 
	C102.451637,295.841431 104.921570,288.681641 108.062256,281.245544 
	C178.737411,280.962463 248.741806,280.955688 318.746216,280.948914 
z"/>
<path fill="#68D9A8" opacity="1.000000" stroke="none" 
	d="
M130.859268,216.984711 
	C134.186279,207.873871 137.513290,198.763031 140.982712,188.933548 
	C142.611191,186.031281 143.622925,182.798141 145.676437,181.870056 
	C150.861679,179.526581 156.515762,178.220413 162.393219,176.541443 
	C169.873093,176.108719 176.941757,175.633209 184.404190,175.272369 
	C195.093979,176.042221 205.523300,175.879089 215.657074,177.530090 
	C234.333160,180.572815 252.835632,184.681091 271.721680,188.555450 
	C278.226196,190.924881 284.419525,193.084198 290.859375,195.496765 
	C297.392365,199.855331 303.678864,203.960632 310.064636,208.386292 
	C310.459412,211.111969 310.754883,213.517258 311.050323,215.922562 
	C311.050323,215.922562 310.791901,215.879944 310.309631,216.027679 
	C306.893616,216.453674 303.959900,216.731918 301.152100,216.689789 
	C300.996582,214.650604 301.255554,212.539474 300.341278,211.280060 
	C296.090149,205.424118 289.750000,202.848190 282.795929,200.398834 
	C284.561432,206.711548 283.510071,208.934189 277.996063,210.164795 
	C273.800903,211.101013 269.450348,212.010941 265.197723,211.893219 
	C252.747208,211.548553 240.232422,211.343094 227.887741,209.869186 
	C209.365250,207.657654 191.125046,203.905334 174.752869,194.124542 
	C169.230087,190.825211 168.623505,189.127991 172.103653,181.834167 
	C165.358444,183.740051 159.555008,184.919235 154.124100,187.048523 
	C149.055405,189.035812 148.244339,193.302521 152.493088,196.699921 
	C156.961105,200.272644 162.075333,203.379257 167.385086,205.483734 
	C177.409424,209.456802 187.776276,212.565613 197.635956,216.225388 
	C190.521072,216.808731 183.771103,217.524124 177.020905,217.526382 
	C161.633743,217.531540 146.246490,217.187103 130.859268,216.984711 
z"/>
<path fill="#1ABC86" opacity="1.000000" stroke="none" 
	d="
M324.987610,337.992188 
	C325.151581,341.979004 325.066956,345.996918 325.560608,349.942505 
	C325.934601,352.932098 324.862488,354.612061 322.124939,354.887878 
	C318.875763,355.215240 315.575104,355.016998 312.297363,355.077789 
	C301.154572,355.284515 290.012726,355.565796 278.869110,355.696991 
	C272.435791,355.772736 265.999756,355.594574 259.564789,355.565887 
	C241.802017,355.486603 224.039108,355.436493 206.276337,355.353668 
	C195.877304,355.305176 185.478195,355.134521 175.079651,355.171936 
	C167.142441,355.200470 159.206406,355.575043 151.269226,355.600830 
	C143.826141,355.625000 136.381729,355.272034 128.938797,355.303406 
	C118.540398,355.347229 108.142807,355.704132 97.744949,355.700684 
	C93.447250,355.699249 89.123764,355.285797 84.872421,354.653534 
	C83.937775,354.514557 82.376022,352.373810 82.609879,351.626251 
	C83.922699,347.429596 85.696739,343.377289 88.107025,339.136108 
	C147.816238,338.998077 206.731796,338.999817 265.647369,339.001068 
	C282.631134,339.001434 299.615143,339.045868 316.598419,338.954895 
	C319.396454,338.939880 322.191284,338.328156 324.987610,337.992188 
z"/>
<path fill="#52CEA3" opacity="1.000000" stroke="none" 
	d="
M112.957886,266.991730 
	C114.880783,261.208099 116.803688,255.424500 119.358582,249.318390 
	C184.945877,248.992157 249.901154,248.988419 314.856445,248.984680 
	C315.550293,255.026077 316.244171,261.067474 316.466736,267.549011 
	C250.766083,267.992340 185.536713,268.006409 120.307419,267.956085 
	C117.857330,267.954193 115.407722,267.327332 112.957886,266.991730 
z"/>
<path fill="#5FD3A7" opacity="1.000000" stroke="none" 
	d="
M130.657837,217.265427 
	C146.246490,217.187103 161.633743,217.531540 177.020905,217.526382 
	C183.771103,217.524124 190.521072,216.808731 198.041763,216.253708 
	C208.733032,218.019669 218.578384,220.776077 228.591705,221.687790 
	C244.246765,223.113190 260.016663,223.821091 275.735626,223.786850 
	C284.484833,223.767807 293.840668,223.844345 301.026154,217.010162 
	C303.959900,216.731918 306.893616,216.453674 310.181671,216.055511 
	C311.647614,222.672592 312.759277,229.409592 313.464417,236.668396 
	C311.088257,237.458572 309.118744,237.960068 307.148895,237.961472 
	C248.398315,238.003250 189.647644,238.019165 130.897247,237.908264 
	C128.575119,237.903885 126.255432,236.617035 123.934616,235.927750 
	C126.108551,229.800552 128.282486,223.673355 130.657837,217.265427 
z"/>
<path fill="#2AC08E" opacity="1.000000" stroke="none" 
	d="
M321.981598,314.994049 
	C322.329895,319.023834 322.678223,323.053589 322.685089,327.704590 
	C314.167603,328.693481 305.994202,329.281281 297.814880,329.380737 
	C282.937500,329.561737 268.056580,329.447998 253.177155,329.466064 
	C243.124725,329.478302 233.072052,329.560577 223.019989,329.510925 
	C212.926956,329.461090 202.834290,329.175110 192.741959,329.199524 
	C183.498291,329.221863 174.255005,329.669830 165.012039,329.653534 
	C156.418060,329.638397 147.822754,329.020508 139.231598,329.092834 
	C125.479889,329.208588 111.732033,329.775055 97.980286,329.897034 
	C95.656960,329.917664 93.322327,328.662445 90.992928,327.996674 
	C92.508896,323.517578 94.024864,319.038513 96.134613,314.422241 
	C99.198509,314.523285 101.668526,314.968536 104.138756,314.969727 
	C176.753021,315.004944 249.367310,314.995972 321.981598,314.994049 
z"/>
<path fill="#43C89C" opacity="1.000000" stroke="none" 
	d="
M112.732391,267.258545 
	C115.407722,267.327332 117.857330,267.954193 120.307419,267.956085 
	C185.536713,268.006409 250.766083,267.992340 316.456055,267.984375 
	C317.505341,272.036621 318.093964,276.093719 318.714417,280.549866 
	C248.741806,280.955688 178.737411,280.962463 108.247437,280.952454 
	C109.343552,276.465546 110.925217,271.995422 112.732391,267.258545 
z"/>
<path fill="#30C292" opacity="1.000000" stroke="none" 
	d="
M321.983826,314.552551 
	C249.367310,314.995972 176.753021,315.004944 104.138756,314.969727 
	C101.668526,314.968536 99.198509,314.523285 96.334824,314.129181 
	C97.135117,310.492126 98.328972,307.010895 99.752274,303.265442 
	C173.307220,302.993195 246.632736,302.985168 320.412506,302.967163 
	C321.239868,306.675110 321.612976,310.393066 321.983826,314.552551 
z"/>
<path fill="#055841" opacity="1.000000" stroke="none" 
	d="
M311.516785,215.941467 
	C310.754883,213.517258 310.459412,211.111969 310.225525,208.063034 
	C315.742950,195.827957 318.507721,183.506287 318.843567,170.818558 
	C319.043976,163.249069 317.670105,155.637878 317.003906,148.045441 
	C331.178345,153.193161 345.352783,158.340897 359.764343,164.193298 
	C359.395050,172.446960 359.301117,180.082108 358.050110,187.522705 
	C356.550690,196.440979 354.064026,205.193237 352.004883,214.017395 
	C338.664337,214.665054 325.323792,215.312714 311.516785,215.941467 
z"/>
<path fill="#22BE8A" opacity="1.000000" stroke="none" 
	d="
M90.797432,328.298035 
	C93.322327,328.662445 95.656960,329.917664 97.980286,329.897034 
	C111.732033,329.775055 125.479889,329.208588 139.231598,329.092834 
	C147.822754,329.020508 156.418060,329.638397 165.012039,329.653534 
	C174.255005,329.669830 183.498291,329.221863 192.741959,329.199524 
	C202.834290,329.175110 212.926956,329.461090 223.019989,329.510925 
	C233.072052,329.560577 243.124725,329.478302 253.177155,329.466064 
	C268.056580,329.447998 282.937500,329.561737 297.814880,329.380737 
	C305.994202,329.281281 314.167603,328.693481 322.691437,328.161377 
	C323.632935,331.068787 324.226654,334.140717 324.903992,337.602417 
	C322.191284,338.328156 319.396454,338.939880 316.598419,338.954895 
	C299.615143,339.045868 282.631134,339.001434 265.647369,339.001068 
	C206.731796,338.999817 147.816238,338.998077 88.426575,338.994202 
	C88.835640,335.527740 89.718788,332.063568 90.797432,328.298035 
z"/>
<path fill="#58D0A5" opacity="1.000000" stroke="none" 
	d="
M123.695297,236.190659 
	C126.255432,236.617035 128.575119,237.903885 130.897247,237.908264 
	C189.647644,238.019165 248.398315,238.003250 307.148895,237.961472 
	C309.118744,237.960068 311.088257,237.458572 313.451172,237.093063 
	C314.198456,240.706009 314.552460,244.416061 314.881470,248.555405 
	C249.901154,248.988419 184.945877,248.992157 119.528107,248.993805 
	C120.529083,244.812317 121.992531,240.632950 123.695297,236.190659 
z"/>
<path fill="#056047" opacity="1.000000" stroke="none" 
	d="
M161.981964,176.498627 
	C156.515762,178.220413 150.861679,179.526581 145.676437,181.870056 
	C143.622925,182.798141 142.611191,186.031281 141.018951,188.569565 
	C138.838531,188.297104 136.764267,187.669998 134.340378,186.506927 
	C133.991180,185.141724 134.098419,184.296387 133.976379,183.485580 
	C131.026810,163.889160 134.268433,145.220673 142.252335,127.225220 
	C142.834656,125.912735 142.780273,124.317780 143.021912,122.854149 
	C151.964020,122.903763 160.906128,122.952858 169.848236,123.003403 
	C171.676422,123.013733 173.504562,123.029396 175.977066,123.025574 
	C176.621399,123.008537 176.956558,122.986572 176.955688,123.373596 
	C176.120544,125.859482 175.568481,128.131516 174.404663,130.028152 
	C168.383072,139.841415 163.635818,150.072861 162.949493,161.798721 
	C162.662582,166.700775 162.306564,171.598785 161.981964,176.498627 
z"/>
<path fill="#06513D" opacity="1.000000" stroke="none" 
	d="
M111.950615,178.329559 
	C98.961021,173.883652 86.939156,167.589569 76.367172,158.820831 
	C71.623657,154.886414 66.823547,150.261536 68.085495,143.317017 
	C69.398781,136.090103 75.586647,133.172760 81.671371,130.686646 
	C93.663422,125.786896 106.384758,124.465065 119.454346,123.689896 
	C113.924599,141.666229 110.773003,159.685913 111.950615,178.329559 
z"/>
<path fill="#055841" opacity="1.000000" stroke="none" 
	d="
M176.956558,122.986572 
	C176.956558,122.986572 176.621399,123.008537 176.457230,123.034622 
	C191.216110,88.566002 233.766556,73.575935 266.760559,91.495346 
	C276.421204,96.742134 284.789551,103.812126 290.479309,113.839355 
	C285.740814,123.003471 278.741669,128.771652 269.501831,132.020874 
	C268.457733,132.388046 267.835236,133.954178 266.614075,134.973557 
	C265.136627,134.996780 264.062347,135.010773 262.751984,134.822449 
	C260.016174,133.738266 257.516479,132.856430 255.175873,131.670441 
	C259.581329,129.558563 264.016846,128.090164 268.024902,125.855141 
	C272.771881,123.208076 277.749512,120.336197 277.967072,113.844559 
	C278.192230,107.126106 273.738525,104.005463 268.469543,101.155930 
	C255.334579,94.052391 241.229996,93.975471 227.118546,95.689362 
	C220.650253,96.474960 214.050140,98.673187 208.220535,101.631409 
	C199.576447,106.017830 195.573563,113.513809 202.996277,121.738922 
	C203.520096,122.319344 203.672348,123.235092 203.530945,123.993233 
	C194.361862,123.656563 185.659210,123.321564 176.956558,122.986572 
z"/>
<path fill="#06513D" opacity="1.000000" stroke="none" 
	d="
M352.422668,214.014954 
	C354.064026,205.193237 356.550690,196.440979 358.050110,187.522705 
	C359.301117,180.082108 359.395050,172.446960 360.003235,164.440414 
	C371.383728,168.447281 381.975830,174.279388 390.170502,183.501083 
	C397.823730,192.113373 395.710358,200.412598 385.421936,205.577347 
	C375.131348,210.743210 363.965759,212.230911 352.422668,214.014954 
z"/>
<path fill="#056047" opacity="1.000000" stroke="none" 
	d="
M316.667053,147.890137 
	C317.670105,155.637878 319.043976,163.249069 318.843567,170.818558 
	C318.507721,183.506287 315.742950,195.827957 310.126251,207.742676 
	C303.678864,203.960632 297.392365,199.855331 291.112854,195.212280 
	C295.629425,184.757019 298.458313,174.586563 295.839844,163.200348 
	C295.172943,160.236206 294.464478,157.661682 293.932831,154.805252 
	C293.785187,152.321976 293.804596,149.996429 293.063995,147.945312 
	C291.567688,143.801239 292.441162,141.671661 297.502136,141.932709 
	C298.800537,141.936371 299.744293,141.943604 300.688049,141.950851 
	C305.902100,143.878860 311.116150,145.806854 316.667053,147.890137 
z"/>
<path fill="#055841" opacity="1.000000" stroke="none" 
	d="
M112.201874,178.549255 
	C110.773003,159.685913 113.924599,141.666229 119.862610,123.688408 
	C127.327400,123.150124 134.705597,122.959106 142.552856,122.811119 
	C142.780273,124.317780 142.834656,125.912735 142.252335,127.225220 
	C134.268433,145.220673 131.026810,163.889160 133.976379,183.485580 
	C134.098419,184.296387 133.991180,185.141724 133.986572,186.407104 
	C126.805977,184.151810 119.629562,181.460373 112.201874,178.549255 
z"/>
<path fill="#06513D" opacity="1.000000" stroke="none" 
	d="
M300.781006,141.549820 
	C299.744293,141.943604 298.800537,141.936371 297.156952,141.733826 
	C292.269257,140.675903 288.067719,139.874207 283.896912,138.935745 
	C278.257996,137.666946 272.642670,136.293106 267.017242,134.964340 
	C267.835236,133.954178 268.457733,132.388046 269.501831,132.020874 
	C278.741669,128.771652 285.740814,123.003471 290.581787,114.159103 
	C296.354919,122.276184 299.887146,131.243790 300.781006,141.549820 
z"/>
<path fill="#056E51" opacity="1.000000" stroke="none" 
	d="
M255.016769,131.974579 
	C257.516479,132.856430 260.016174,133.738266 262.790039,135.177155 
	C263.634644,136.898407 264.113190,138.119415 264.791443,139.216995 
	C267.721954,143.959244 271.675262,148.325302 273.483612,153.453415 
	C277.613953,165.166306 277.653748,177.047775 271.410461,188.345352 
	C252.835632,184.681091 234.333160,180.572815 215.657074,177.530090 
	C205.523300,175.879089 195.093979,176.042221 184.402161,174.796692 
	C183.334473,156.711533 188.761826,141.990646 203.179367,131.152054 
	C205.191284,129.639572 206.420181,127.085510 208.424911,125.020157 
	C211.881744,125.335335 214.925217,125.643967 218.256256,126.203934 
	C225.357864,127.304642 232.171906,128.154022 239.175110,129.323761 
	C244.581757,130.420944 249.799271,131.197769 255.016769,131.974579 
M235.355728,138.024612 
	C233.906921,138.291351 231.894211,138.054245 231.118515,138.922409 
	C229.059219,141.227188 226.791962,143.797729 225.978653,146.653137 
	C224.892151,150.467682 226.964478,153.694016 230.532227,155.648193 
	C233.739624,157.404999 237.248474,157.506012 239.641037,154.843414 
	C241.770844,152.473221 244.040359,149.181091 244.106689,146.247437 
	C244.208481,141.744354 240.654968,139.042358 235.355728,138.024612 
z"/>
<path fill="#85E5BC" opacity="1.000000" stroke="none" 
	d="
M301.152100,216.689789 
	C293.840668,223.844345 284.484833,223.767807 275.735626,223.786850 
	C260.016663,223.821091 244.246765,223.113190 228.591705,221.687790 
	C218.578384,220.776077 208.733032,218.019669 198.406570,216.061935 
	C187.776276,212.565613 177.409424,209.456802 167.385086,205.483734 
	C162.075333,203.379257 156.961105,200.272644 152.493088,196.699921 
	C148.244339,193.302521 149.055405,189.035812 154.124100,187.048523 
	C159.555008,184.919235 165.358444,183.740051 172.103653,181.834167 
	C168.623505,189.127991 169.230087,190.825211 174.752869,194.124542 
	C191.125046,203.905334 209.365250,207.657654 227.887741,209.869186 
	C240.232422,211.343094 252.747208,211.548553 265.197723,211.893219 
	C269.450348,212.010941 273.800903,211.101013 277.996063,210.164795 
	C283.510071,208.934189 284.561432,206.711548 282.795929,200.398834 
	C289.750000,202.848190 296.090149,205.424118 300.341278,211.280060 
	C301.255554,212.539474 300.996582,214.650604 301.152100,216.689789 
z"/>
<path fill="#05674C" opacity="1.000000" stroke="none" 
	d="
M208.011551,125.013611 
	C206.420181,127.085510 205.191284,129.639572 203.179367,131.152054 
	C188.761826,141.990646 183.334473,156.711533 184.008362,174.682007 
	C176.941757,175.633209 169.873093,176.108719 162.393204,176.541443 
	C162.306564,171.598785 162.662582,166.700775 162.949493,161.798721 
	C163.635818,150.072861 168.383072,139.841415 174.404663,130.028152 
	C175.568481,128.131516 176.120544,125.859482 176.955688,123.373596 
	C185.659210,123.321564 194.361862,123.656563 203.826202,124.180710 
	C205.729095,124.584450 206.870331,124.799026 208.011551,125.013611 
M173.786194,147.883240 
	C176.809464,150.300476 180.244537,151.489746 182.984268,148.133453 
	C184.465500,146.318863 185.509903,143.074936 184.975327,140.915497 
	C183.928543,136.687042 179.490494,135.156387 175.855698,136.917389 
	C171.832031,138.866791 170.897141,142.587570 173.786194,147.883240 
z"/>
<path fill="#05674C" opacity="1.000000" stroke="none" 
	d="
M271.721680,188.555450 
	C277.653748,177.047775 277.613953,165.166306 273.483612,153.453415 
	C271.675262,148.325302 267.721954,143.959244 264.791443,139.216995 
	C264.113190,138.119415 263.634644,136.898407 263.026154,135.379486 
	C264.062347,135.010773 265.136627,134.996780 266.614075,134.973557 
	C272.642670,136.293106 278.257996,137.666946 283.896912,138.935745 
	C288.067719,139.874207 292.269257,140.675903 296.802307,141.737411 
	C292.441162,141.671661 291.567688,143.801239 293.063995,147.945312 
	C293.804596,149.996429 293.785187,152.321976 293.602539,154.732452 
	C286.700623,152.353226 281.986786,154.298492 282.316223,159.785980 
	C282.461212,162.201218 283.942047,165.804657 285.779785,166.577377 
	C289.264282,168.042542 293.280792,167.350906 295.798279,163.589996 
	C298.458313,174.586563 295.629425,184.757019 290.866364,194.959015 
	C284.419525,193.084198 278.226196,190.924881 271.721680,188.555450 
z"/>
<path fill="#056047" opacity="1.000000" stroke="none" 
	d="
M208.424911,125.020157 
	C206.870331,124.799026 205.729095,124.584450 204.292633,124.182388 
	C203.672348,123.235092 203.520096,122.319344 202.996277,121.738922 
	C195.573563,113.513809 199.576447,106.017830 208.220535,101.631409 
	C214.050140,98.673187 220.650253,96.474960 227.118546,95.689362 
	C241.229996,93.975471 255.334579,94.052391 268.469543,101.155930 
	C273.738525,104.005463 278.192230,107.126106 277.967072,113.844559 
	C277.749512,120.336197 272.771881,123.208076 268.024902,125.855141 
	C264.016846,128.090164 259.581329,129.558563 255.175873,131.670441 
	C249.799271,131.197769 244.581757,130.420944 239.550827,129.174759 
	C247.237106,126.762527 254.840317,125.138420 262.195251,122.749794 
	C266.207428,121.446793 269.617676,118.417549 269.759033,113.727928 
	C269.907715,108.795128 266.318176,105.594749 262.406738,103.880363 
	C245.842484,96.620239 229.184631,96.502808 213.034500,105.155113 
	C206.638535,108.581711 206.307602,115.636131 211.736481,120.441505 
	C213.813004,122.279533 215.891235,124.115631 217.968689,125.952599 
	C214.925217,125.643967 211.881744,125.335335 208.424911,125.020157 
z"/>
<path fill="#BEEBDC" opacity="1.000000" stroke="none" 
	d="
M295.839844,163.200348 
	C293.280792,167.350906 289.264282,168.042542 285.779785,166.577377 
	C283.942047,165.804657 282.461212,162.201218 282.316223,159.785980 
	C281.986786,154.298492 286.700623,152.353226 293.425781,155.014374 
	C294.464478,157.661682 295.172943,160.236206 295.839844,163.200348 
z"/>
<path fill="#05674C" opacity="1.000000" stroke="none" 
	d="
M218.256256,126.203934 
	C215.891235,124.115631 213.813004,122.279533 211.736481,120.441505 
	C206.307602,115.636131 206.638535,108.581711 213.034500,105.155113 
	C229.184631,96.502808 245.842484,96.620239 262.406738,103.880363 
	C266.318176,105.594749 269.907715,108.795128 269.759033,113.727928 
	C269.617676,118.417549 266.207428,121.446793 262.195251,122.749794 
	C254.840317,125.138420 247.237106,126.762527 239.361664,128.854385 
	C232.171906,128.154022 225.357864,127.304642 218.256256,126.203934 
M224.195953,119.448174 
	C234.497574,124.154739 244.769684,124.237167 254.745468,118.721405 
	C260.086273,115.768379 260.042358,111.009033 254.733414,107.971718 
	C244.739624,102.254150 234.301239,102.519806 224.133377,107.157066 
	C217.588272,110.142105 217.618774,114.804466 224.195953,119.448174 
z"/>
<path fill="#BEEBDC" opacity="1.000000" stroke="none" 
	d="
M235.749908,138.070496 
	C240.654968,139.042358 244.208481,141.744354 244.106689,146.247437 
	C244.040359,149.181091 241.770844,152.473221 239.641037,154.843414 
	C237.248474,157.506012 233.739624,157.404999 230.532227,155.648193 
	C226.964478,153.694016 224.892151,150.467682 225.978653,146.653137 
	C226.791962,143.797729 229.059219,141.227188 231.118515,138.922409 
	C231.894211,138.054245 233.906921,138.291351 235.749908,138.070496 
z"/>
<path fill="#BEEBDC" opacity="1.000000" stroke="none" 
	d="
M173.503754,147.642578 
	C170.897141,142.587570 171.832031,138.866791 175.855698,136.917389 
	C179.490494,135.156387 183.928543,136.687042 184.975327,140.915497 
	C185.509903,143.074936 184.465500,146.318863 182.984268,148.133453 
	C180.244537,151.489746 176.809464,150.300476 173.503754,147.642578 
z"/>
<path fill="#056E51" opacity="1.000000" stroke="none" 
	d="
M223.879425,119.240875 
	C217.618774,114.804466 217.588272,110.142105 224.133377,107.157066 
	C234.301239,102.519806 244.739624,102.254150 254.733414,107.971718 
	C260.042358,111.009033 260.086273,115.768379 254.745468,118.721405 
	C244.769684,124.237167 234.497574,124.154739 223.879425,119.240875 
z"/>
</svg>